<?xml version="1.0" encoding="iso-8859-1"?>
<!-- Generator: Adobe Illustrator 18.0.0, SVG Export Plug-In . SVG Version: 6.00 Build 0)  -->
<!DOCTYPE svg PUBLIC "-//W3C//DTD SVG 1.1//EN" "http://www.w3.org/Graphics/SVG/1.1/DTD/svg11.dtd">
<svg version="1.1" id="Capa_1" xmlns="http://www.w3.org/2000/svg" xmlns:xlink="http://www.w3.org/1999/xlink" x="0px" y="0px"
	 viewBox="0 0 297.8 297.8" style="enable-background:new 0 0 297.8 297.8;" xml:space="preserve">
<path d="M198.749,112.18c1.14-8.045,3.529-15.919,7.161-23.314l0.009-0.018c5.577-11.352,4.659-24.825-2.389-35.328
	c-7.232-10.778-12.159-29.099-12.695-50.154C190.787,1.494,189.257,0,187.384,0h-7.71c-1.868,0-3.395,1.484-3.451,3.351
	c-0.86,28.881-12.763,51.777-27.323,51.777c-14.56,0-26.462-22.896-27.323-51.777C121.522,1.485,119.994,0,118.127,0h-7.711
	c-1.874,0-3.403,1.493-3.451,3.366c-0.536,21.055-5.462,39.377-12.694,50.155c-7.038,10.489-7.959,23.99-2.389,35.328l0.009,0.018
	c3.633,7.395,6.022,15.269,7.161,23.314C67.326,143.904,45.176,217.451,42.946,288.9c-0.073,2.333,0.804,4.595,2.428,6.272
	c1.624,1.677,3.859,2.627,6.193,2.627h194.665c2.335,0,4.57-0.947,6.195-2.624c1.625-1.677,2.499-3.941,2.426-6.275
	C252.625,217.45,230.488,143.903,198.749,112.18z M120.548,182.739c0,9.378-7.603,16.981-16.981,16.981
	c-9.379,0-16.981-7.603-16.981-16.981v-11.092c0-2.031,1.646-3.677,3.677-3.677h26.608c2.031,0,3.677,1.646,3.677,3.677V182.739z
	 M211.214,182.739c0,9.378-7.603,16.981-16.981,16.981c-9.378,0-16.981-7.603-16.981-16.981v-11.092
	c0-2.031,1.646-3.677,3.677-3.677h26.608c2.031,0,3.677,1.646,3.677,3.677V182.739z"/>
<g>
</g>
<g>
</g>
<g>
</g>
<g>
</g>
<g>
</g>
<g>
</g>
<g>
</g>
<g>
</g>
<g>
</g>
<g>
</g>
<g>
</g>
<g>
</g>
<g>
</g>
<g>
</g>
<g>
</g>
</svg>
